<svg xmlns="http://www.w3.org/2000/svg" fill="none" viewBox="0 0 14 14" height="14" width="14"><g id="hamburger-menu-1--button-parallel-horizontal-lines-menu-navigation-three-hamburger"><path id="Union" fill="#00d094" fill-rule="evenodd" d="M0.078 2a0.75 0.75 0 0 1 0.75 -0.75h12.344a0.75 0.75 0 0 1 0 1.5H0.828A0.75 0.75 0 0 1 0.078 2Zm0 5a0.75 0.75 0 0 1 0.75 -0.75h12.344a0.75 0.75 0 0 1 0 1.5H0.828A0.75 0.75 0 0 1 0.078 7Zm0.75 4.25a0.75 0.75 0 0 0 0 1.5h12.344a0.75 0.75 0 0 0 0 -1.5H0.828Z" clip-rule="evenodd" stroke-width="1"></path></g></svg>